<svg xmlns="http://www.w3.org/2000/svg" width="17.778" height="15.832" viewBox="0 0 17.778 15.832"><defs><style>.a{fill:#465def;}.b{fill:#5c71f2;}.c{fill:#6e81fb;}.d{fill:#fff;}</style></defs><path class="a" d="M16.567,397.6v2.54a1.27,1.27,0,0,0,1.27,1.27H33.075a1.27,1.27,0,0,0,1.27-1.27V397.6Z" transform="translate(-16.567 -385.578)"/><path class="a" d="M425.571,397.6v2.54a1.27,1.27,0,0,1-1.27,1.27h.882a1.27,1.27,0,0,0,1.27-1.27V397.6Z" transform="translate(-408.675 -385.578)"/><path class="b" d="M16.567,132.533v10.562a1.225,1.225,0,0,0,1.27,1.174H33.075a1.225,1.225,0,0,0,1.27-1.174V132.533H16.567Z" transform="translate(-16.567 -129.706)"/><path class="a" d="M425.468,132.533v11.079a1.2,1.2,0,0,1-1.167,1.231h.81a1.2,1.2,0,0,0,1.167-1.231V132.533Z" transform="translate(-408.675 -130.28)"/><path class="c" d="M34.346,37.578V34.4a1.27,1.27,0,0,0-1.27-1.27H17.838a1.27,1.27,0,0,0-1.27,1.27v3.175Z" transform="translate(-16.568 -31.864)"/><g transform="translate(2.887 2.252)"><path class="b" d="M92.822,59.342h-.635a.287.287,0,0,1,0-.575h.635a.287.287,0,1,1,0,.575Z" transform="translate(-91.9 -58.767)"/></g><g transform="translate(4.792 2.252)"><path class="b" d="M142.522,59.342h-.635a.287.287,0,0,1,0-.575h.635a.287.287,0,0,1,0,.575Z" transform="translate(-141.6 -58.767)"/></g><g transform="translate(11.776 2.252)"><path class="b" d="M324.756,59.342h-.635a.287.287,0,0,1,0-.575h.635a.287.287,0,1,1,0,.575Z" transform="translate(-323.834 -58.767)"/></g><g transform="translate(13.681 2.252)"><path class="b" d="M374.455,59.342h-.635a.287.287,0,1,1,0-.575h.635a.287.287,0,1,1,0,.575Z" transform="translate(-373.533 -58.767)"/></g><path class="a" d="M115.966,2.54a.635.635,0,1,0,1.27,0V.635a.635.635,0,0,0-1.27,0v1.9Z" transform="translate(-112.157 0)"/><path class="a" d="M347.9,2.54a.635.635,0,0,0,1.27,0V.635a.635.635,0,0,0-1.27,0Z" transform="translate(-335.202 0)"/><g transform="translate(0 1.27)"><path class="a" d="M425.181,33.133H424.3a1.27,1.27,0,0,1,1.27,1.27v3.175h.881V34.4A1.27,1.27,0,0,0,425.181,33.133Z" transform="translate(-408.674 -33.133)"/><path class="b" d="M16.567,108.467H34.345v.575H16.567Z" transform="translate(-16.567 -105.58)"/></g><g transform="translate(5.444 6.916)"><path class="d" d="M135.814,200.441a1.641,1.641,0,1,0-3.281,0,.438.438,0,1,0,.875,0,.766.766,0,1,1,.766.766.438.438,0,0,0,0,.875.766.766,0,1,1-.766.766.438.438,0,1,0-.875,0,1.641,1.641,0,1,0,2.755-1.2A1.636,1.636,0,0,0,135.814,200.441Z" transform="translate(-132.533 -198.8)"/><path class="d" d="M281.819,198.832a.437.437,0,0,0-.477.095l-.875.875a.437.437,0,1,0,.619.619l.128-.128v3.756a.438.438,0,1,0,.875,0v-4.813A.438.438,0,0,0,281.819,198.832Z" transform="translate(-276.436 -198.799)"/></g></svg>