<svg xmlns="http://www.w3.org/2000/svg" xmlns:xlink="http://www.w3.org/1999/xlink" version="1.1" width="256" height="256" viewBox="0 0 256 256" xml:space="preserve">

<defs>
</defs>
<g style="stroke: none; stroke-width: 0; stroke-dasharray: none; stroke-linecap: butt; stroke-linejoin: miter; stroke-miterlimit: 10; fill: none; fill-rule: nonzero; opacity: 1;" transform="translate(1.4065934065934016 1.4065934065934016) scale(2.81 2.81)" >
	<rect x="2.34" y="32.74" rx="0" ry="0" width="86.37" height="47.98" style="stroke: none; stroke-width: 1; stroke-dasharray: none; stroke-linecap: butt; stroke-linejoin: miter; stroke-miterlimit: 10; fill: rgb(228,231,231); fill-rule: nonzero; opacity: 1;" transform=" matrix(1 0 0 1 0 0) "/>
	<rect x="21.15" y="8.89" rx="0" ry="0" width="7.34" height="13.76" style="stroke: none; stroke-width: 1; stroke-dasharray: none; stroke-linecap: butt; stroke-linejoin: miter; stroke-miterlimit: 10; fill: rgb(191,57,44); fill-rule: nonzero; opacity: 1;" transform=" matrix(1 0 0 1 0 0) "/>
	<rect x="62.15" y="8.89" rx="0" ry="0" width="7.34" height="13.76" style="stroke: none; stroke-width: 1; stroke-dasharray: none; stroke-linecap: butt; stroke-linejoin: miter; stroke-miterlimit: 10; fill: rgb(191,57,44); fill-rule: nonzero; opacity: 1;" transform=" matrix(1 0 0 1 0 0) "/>
	<path d="M 71.33 14.891 v -8 H 58.67 v 8 H 31.33 v -8 H 18.67 v 8 H 0 v 0 v 20.348 v 47.871 h 90 V 35.238 V 14.891 v 0 H 71.33 z M 62.67 10.891 h 4.66 v 10.174 h -4.66 V 10.891 z M 22.67 10.891 h 4.66 v 10.174 h -4.66 V 10.891 z M 86 79.109 H 4 V 35.238 h 82 V 79.109 z" style="stroke: none; stroke-width: 1; stroke-dasharray: none; stroke-linecap: butt; stroke-linejoin: miter; stroke-miterlimit: 10; fill: rgb(226,87,76); fill-rule: nonzero; opacity: 1;" transform=" matrix(1 0 0 1 0 0) " stroke-linecap="round" />
	<path d="M 33.444 60.886 l 7.45 -0.467 c 0.161 1.21 0.489 2.132 0.985 2.766 c 0.807 1.025 1.959 1.538 3.457 1.538 c 1.118 0 1.979 -0.262 2.585 -0.786 s 0.906 -1.132 0.906 -1.823 c 0 -0.657 -0.287 -1.245 -0.863 -1.764 s -1.913 -1.009 -4.011 -1.47 c -3.435 -0.771 -5.883 -1.798 -7.347 -3.077 c -1.476 -1.279 -2.213 -2.909 -2.213 -4.892 c 0 -1.303 0.378 -2.532 1.133 -3.691 c 0.754 -1.158 1.89 -2.068 3.405 -2.73 c 1.516 -0.663 3.593 -0.994 6.231 -0.994 c 3.238 0 5.707 0.603 7.408 1.807 c 1.699 1.204 2.711 3.12 3.033 5.747 l -7.381 0.433 c -0.197 -1.141 -0.609 -1.971 -1.236 -2.489 c -0.629 -0.519 -1.495 -0.778 -2.602 -0.778 c -0.911 0 -1.597 0.193 -2.058 0.579 c -0.461 0.387 -0.691 0.856 -0.691 1.409 c 0 0.403 0.19 0.767 0.57 1.089 c 0.369 0.335 1.245 0.646 2.628 0.934 c 3.422 0.738 5.875 1.484 7.355 2.239 s 2.559 1.691 3.232 2.809 c 0.674 1.118 1.012 2.368 1.012 3.751 c 0 1.625 -0.449 3.123 -1.35 4.495 c -0.898 1.371 -2.154 2.411 -3.768 3.12 s -3.648 1.063 -6.103 1.063 c -4.31 0 -7.295 -0.83 -8.954 -2.49 C 34.603 65.553 33.663 63.444 33.444 60.886 z" style="stroke: none; stroke-width: 1; stroke-dasharray: none; stroke-linecap: butt; stroke-linejoin: miter; stroke-miterlimit: 10; fill: rgb(55,79,91); fill-rule: nonzero; opacity: 1;" transform=" matrix(1 0 0 1 0 0) " stroke-linecap="round" />
	<rect x="42.4" y="68.34" rx="0" ry="0" width="5.2" height="5.94" style="stroke: none; stroke-width: 1; stroke-dasharray: none; stroke-linecap: butt; stroke-linejoin: miter; stroke-miterlimit: 10; fill: rgb(55,79,91); fill-rule: nonzero; opacity: 1;" transform=" matrix(1 0 0 1 0 0) "/>
	<rect x="42.4" y="39.34" rx="0" ry="0" width="5.2" height="5.94" style="stroke: none; stroke-width: 1; stroke-dasharray: none; stroke-linecap: butt; stroke-linejoin: miter; stroke-miterlimit: 10; fill: rgb(55,79,91); fill-rule: nonzero; opacity: 1;" transform=" matrix(1 0 0 1 0 0) "/>
</g>
</svg>