<svg xmlns="http://www.w3.org/2000/svg" xmlns:xlink="http://www.w3.org/1999/xlink" width="55" height="55" viewBox="0 0 55 55"><defs><style>.a{fill:url(#a);}.b{fill:#fff;}</style><linearGradient id="a" x1="0.247" y1="-0.04" x2="0.845" y2="0.925" gradientUnits="objectBoundingBox"><stop offset="0" stop-color="#99aaf5"/><stop offset="1" stop-color="#465def"/></linearGradient></defs><g transform="translate(0 -0.328)"><g transform="translate(0 0.328)"><rect class="a" width="55" height="55" rx="27.5"/><path class="b" d="M58.653,67.338l2.561-3.748q3.884-5.7,7.772-11.368a1.888,1.888,0,0,1,2.906-.519c.415.282.836.548,1.244.836a1.886,1.886,0,0,1,.522,2.814q-4.15,6.1-8.319,12.185Q63.31,70.5,61.306,73.46a1.88,1.88,0,0,1-2.957.576q-3.713-2.612-7.386-5.284a1.879,1.879,0,0,1-.437-2.922c.317-.431.611-.867.931-1.292a1.8,1.8,0,0,1,2.564-.484c1.067.7,2.093,1.472,3.137,2.216Z" transform="translate(-34.186 -35.397)"/></g></g></svg>