<svg xmlns="http://www.w3.org/2000/svg" width="17.777" height="11.852" viewBox="0 0 17.777 11.852"><defs><style>.a{fill:#465def;}.b{fill:#5c71f2;}.c{fill:#6e81fb;}</style></defs><path class="a" d="M29.292,250.14a1.852,1.852,0,0,1-1.422.667H13.8a1.852,1.852,0,0,1-1.422-.667l6.792-5.659.7.481a1.7,1.7,0,0,0,1.926,0l.7-.481Z" transform="translate(-11.944 -238.955)"/><path class="b" d="M26.513,86.141l-6.9,4.718-.7.481a1.7,1.7,0,0,1-1.926,0l-.7-.481-6.9-4.726a1.86,1.86,0,0,1,1.526-.8H24.988A1.827,1.827,0,0,1,26.513,86.141Z" transform="translate(-9.062 -85.333)"/><g transform="translate(0 0.8)"><path class="c" d="M7.222,113.1.43,118.76A1.843,1.843,0,0,1,0,117.575v-8.148a1.825,1.825,0,0,1,.326-1.052Z" transform="translate(0 -108.375)"/><path class="c" d="M311.223,109.632v8.148a1.844,1.844,0,0,1-.43,1.185L304,113.306l6.9-4.718A1.819,1.819,0,0,1,311.223,109.632Z" transform="translate(-293.446 -108.581)"/></g></svg>