<svg xmlns="http://www.w3.org/2000/svg" width="17.777" height="14.268" viewBox="0 0 17.777 14.268"><defs><style>.a{fill:#465def;}.b{fill:#6e81fb;}.c{fill:#fff;}</style></defs><path class="a" d="M18.581,54.141l0-.027A3.788,3.788,0,0,0,15.2,50.739c-1.267-.132-3.354-.2-5.314-.2s-4.047.067-5.312.2A3.788,3.788,0,0,0,1.2,54.114l0,.026A21.063,21.063,0,0,0,1,57.579a24.119,24.119,0,0,0,.2,3.627l0,.026a3.787,3.787,0,0,0,3.377,3.375c1.267.132,3.354.2,5.314.2s4.047-.067,5.314-.2a3.787,3.787,0,0,0,3.375-3.375l0-.027a24.135,24.135,0,0,0,.2-3.627A21.119,21.119,0,0,0,18.581,54.141Z" transform="translate(-1 -50.539)"/><path class="b" d="M4.576,50.7A3.788,3.788,0,0,0,1.2,54.075l0,.026A21.063,21.063,0,0,0,1,57.54a24.118,24.118,0,0,0,.2,3.627l0,.026a3.771,3.771,0,0,0,.12.625A9.681,9.681,0,0,0,14.562,50.642c-1.267-.094-3.016-.142-4.674-.142C7.93,50.5,5.842,50.568,4.576,50.7Z" transform="translate(-1 -50.5)"/><path class="c" d="M50.01,135.93a2.018,2.018,0,1,1-2.016,2.017,2.018,2.018,0,0,1,2.016-2.017Zm3.368,6.889v.009a1.458,1.458,0,0,1-.357.8,1.4,1.4,0,0,1-.751.454,12.532,12.532,0,0,1-2.1.183,13.757,13.757,0,0,1-2.337-.184,1.4,1.4,0,0,1-.751-.454,1.458,1.458,0,0,1-.357-.8v-.009a4.634,4.634,0,0,1-.02-.645,3.182,3.182,0,0,1,.02-.535v-.009a1.242,1.242,0,0,1,.359-.748,1.265,1.265,0,0,1,.753-.363c.417-.044,1.687-.069,2.333-.069s1.682.024,2.1.069a1.263,1.263,0,0,1,.753.363,1.242,1.242,0,0,1,.356.748v.009a4.586,4.586,0,0,1,.031.534,6.134,6.134,0,0,1-.029.646Zm4.511-.615H55.524a.773.773,0,1,1,0-1.546h2.363a.773.773,0,1,1,0,1.546Zm2.339-2.664h-4.7a.773.773,0,1,1,0-1.546h4.7a.773.773,0,1,1,0,1.546Z" transform="translate(-45.112 -132.964)"/></svg>