<svg xmlns="http://www.w3.org/2000/svg" width="17.777" height="12" viewBox="0 0 17.777 12"><defs><style>.a{fill:#5c71f2;}.b{fill:#465def;}.c{fill:#6e81fb;}.d{fill:#fff;}</style></defs><g transform="translate(0 0)"><g transform="translate(0 2.736)"><path class="a" d="M.178,124.9,0,125.179v8.027a1.041,1.041,0,0,0,1.108.959H16.67a1.041,1.041,0,0,0,1.108-.959v-8.027L17.6,124.9Z" transform="translate(0 -124.901)"/></g><g transform="translate(0 2.736)"><g transform="translate(0 0)"><path class="b" d="M15.964,124.9v6.734a1.041,1.041,0,0,1-1.108.959H0v.611a1.041,1.041,0,0,0,1.108.959H16.67a1.041,1.041,0,0,0,1.108-.959v-8.027L17.6,124.9Z" transform="translate(0 -124.901)"/></g></g><path class="c" d="M16.67,46.1H1.108A1.108,1.108,0,0,0,0,47.208v1.949H17.777V47.208A1.108,1.108,0,0,0,16.67,46.1Z" transform="translate(0 -46.1)"/><g transform="translate(15.964)"><path class="c" d="M460.471,46.1h-.706v3.057h1.814V47.208A1.108,1.108,0,0,0,460.471,46.1Z" transform="translate(-459.765 -46.1)"/></g><g transform="translate(1.509 1.031)"><ellipse class="d" cx="0.497" cy="0.497" rx="0.497" ry="0.497"/><g transform="translate(1.529)"><ellipse class="d" cx="0.497" cy="0.497" rx="0.497" ry="0.497"/></g><g transform="translate(3.057)"><g transform="translate(0)"><ellipse class="d" cx="0.497" cy="0.497" rx="0.497" ry="0.497"/></g></g></g><g transform="translate(1.867 5.259)"><path class="d" d="M54.913,225.162h0a.268.268,0,0,0,.253-.178l.665-1.865.635,1.861a.268.268,0,0,0,.253.182h0a.268.268,0,0,0,.253-.18l.9-2.57a.268.268,0,0,0-.506-.177l-.644,1.838-.633-1.855a.27.27,0,0,0-.507,0l-.665,1.867-.633-1.842a.268.268,0,0,0-.507.174l.882,2.567A.268.268,0,0,0,54.913,225.162Z" transform="translate(-53.764 -222.039)"/><path class="d" d="M197.869,225.162h0a.268.268,0,0,0,.253-.178l.665-1.865.635,1.861a.268.268,0,0,0,.253.182h0a.268.268,0,0,0,.253-.18l.9-2.57a.268.268,0,0,0-.506-.177l-.644,1.838-.633-1.855a.27.27,0,0,0-.507,0l-.665,1.867-.633-1.842a.268.268,0,0,0-.507.174l.882,2.567A.268.268,0,0,0,197.869,225.162Z" transform="translate(-191.757 -222.039)"/><path class="d" d="M338.5,225.162h0a.268.268,0,0,0,.253-.178l.664-1.865.635,1.861a.268.268,0,0,0,.253.182h0a.268.268,0,0,0,.253-.18l.9-2.57a.268.268,0,0,0-.506-.177l-.644,1.838-.633-1.855a.27.27,0,0,0-.507,0l-.665,1.867-.633-1.842a.268.268,0,0,0-.507.174l.882,2.567a.268.268,0,0,0,.252.181Z" transform="translate(-327.509 -222.039)"/></g></g></svg>