<svg xmlns="http://www.w3.org/2000/svg" width="20" height="20" viewBox="0 0 20 20"><defs><style>.a{fill:#465def;}</style></defs><g transform="translate(-8 -8)"><path class="a" d="M18,8A10,10,0,1,0,28,18,10,10,0,0,0,18,8Zm6.737,7.458v6.567a.242.242,0,0,1-.125.217.246.246,0,0,1-.225,0L22.27,20.329V17.141l2.117-1.912a.246.246,0,0,1,.225,0,.242.242,0,0,1,.125.229Zm-5.117,7.329H13.075a1.812,1.812,0,0,1-1.812-1.812V16.512A1.817,1.817,0,0,1,13.075,14.7H14.35a1.9,1.9,0,0,0,3.7,0h1.571a1.817,1.817,0,0,1,1.817,1.817v4.462a1.817,1.817,0,0,1-1.817,1.812ZM16.2,13.2a1.062,1.062,0,1,0,0,.008Z" transform="translate(0)"/></g></svg>