<svg xmlns="http://www.w3.org/2000/svg" width="19.999" height="21.5" viewBox="0 0 19.999 21.5"><defs><style>.a{fill:#465def;}</style></defs><g transform="translate(-2.75 -1.25)"><path class="a" d="M12,4.25a9.25,9.25,0,1,0,9.25,9.25A9.25,9.25,0,0,0,12,4.25Zm3.712,10.987A.751.751,0,0,1,15,15.75a.787.787,0,0,1-.237-.038l-3-1A.752.752,0,0,1,11.25,14V10a.75.75,0,0,1,1.5,0v3.459l2.487.829a.751.751,0,0,1,.475.949Z"/><path class="a" d="M14,2.75H10a.75.75,0,0,1,0-1.5h4a.75.75,0,1,1,0,1.5Z"/><path class="a" d="M22,7.75a.744.744,0,0,1-.53-.22l-3-3a.75.75,0,0,1,1.06-1.06l3,3A.75.75,0,0,1,22,7.75Z"/><path class="a" d="M12,5.75A.75.75,0,0,1,11.25,5V2a.75.75,0,0,1,1.5,0V5A.75.75,0,0,1,12,5.75Z"/></g></svg>