<svg xmlns="http://www.w3.org/2000/svg" xmlns:xlink="http://www.w3.org/1999/xlink" width="14.268" height="14.268" viewBox="0 0 14.268 14.268"><defs><style>.a{fill:url(#a);}.b{fill:url(#b);}</style><linearGradient id="a" x1="0.5" y1="1" x2="0.5" gradientUnits="objectBoundingBox"><stop offset="0" stop-color="#465def"/><stop offset="1" stop-color="#6e81fb"/></linearGradient><linearGradient id="b" x1="0.5" y1="1" x2="0.5" gradientUnits="objectBoundingBox"><stop offset="0" stop-color="#6e81fb"/><stop offset="0.503" stop-color="#eaf6ff"/><stop offset="1" stop-color="#eaf6ff"/></linearGradient></defs><g transform="translate(0 2.289)"><path class="a" d="M11.965,91.549a1.25,1.25,0,0,0-.552-.92L9.285,89.21a1.257,1.257,0,0,0-1.583.157l-.68.686c-.155.054-.87-.249-1.792-1.171S4.01,87.249,4.049,87.108l.7-.7A1.257,1.257,0,0,0,4.9,84.828L3.485,82.7a1.254,1.254,0,0,0-1.93-.191L.5,83.561C-.94,85,.939,88.173,3.439,90.674c1.7,1.7,5.42,4.631,7.112,2.937L11.6,92.558a1.248,1.248,0,0,0,.361-1.01Z" transform="translate(-0.001 -82.142)"/></g><g transform="translate(7.58)"><path class="b" d="M272.418,0a.418.418,0,1,0,0,.836,5.44,5.44,0,0,1,5.434,5.434.418.418,0,0,0,.836,0A6.277,6.277,0,0,0,272.418,0Zm0,1.672a.418.418,0,1,0,0,.836A3.766,3.766,0,0,1,276.18,6.27a.418.418,0,0,0,.836,0A4.6,4.6,0,0,0,272.418,1.672Zm0,1.672a.418.418,0,1,0,0,.836,2.092,2.092,0,0,1,2.09,2.09.418.418,0,0,0,.836,0A2.93,2.93,0,0,0,272.418,3.344Zm0,1.672a.418.418,0,1,0,0,.836.418.418,0,0,1,.418.418.418.418,0,0,0,.836,0A1.255,1.255,0,0,0,272.418,5.016Z" transform="translate(-272)"/></g></svg>