<svg height="512" viewBox="0 0 24 24" width="512" xmlns="http://www.w3.org/2000/svg"><g id="Layer_2" data-name="Layer 2"><path d="m12 4.25a9.25 9.25 0 1 0 9.25 9.25 9.26 9.26 0 0 0 -9.25-9.25zm3.712 10.987a.751.751 0 0 1 -.712.513.787.787 0 0 1 -.237-.038l-3-1a.752.752 0 0 1 -.513-.712v-4a.75.75 0 0 1 1.5 0v3.459l2.487.829a.751.751 0 0 1 .475.949z"/><path d="m14 2.75h-4a.75.75 0 0 1 0-1.5h4a.75.75 0 0 1 0 1.5z"/><path d="m22 7.75a.744.744 0 0 1 -.53-.22l-3-3a.75.75 0 0 1 1.06-1.06l3 3a.75.75 0 0 1 -.53 1.28z"/><path d="m12 5.75a.75.75 0 0 1 -.75-.75v-3a.75.75 0 0 1 1.5 0v3a.75.75 0 0 1 -.75.75z"/></g></svg>