<svg height="512" viewBox="0 0 64 64" width="512" xmlns="http://www.w3.org/2000/svg"><g id="Layer_34" data-name="Layer 34"><path d="m32 8a24 24 0 0 0 -24 24 24 24 0 0 0 24 24 24 24 0 0 0 24-24 24 24 0 0 0 -24-24zm16.17 17.9v15.76a.58.58 0 0 1 -.3.52.59.59 0 0 1 -.54 0l-5.08-4.59v-7.65l5.08-4.59a.59.59 0 0 1 .54 0 .58.58 0 0 1 .3.55zm-12.28 17.59h-15.71a4.35 4.35 0 0 1 -4.35-4.35v-10.71a4.36 4.36 0 0 1 4.35-4.36h3.06a4.55 4.55 0 0 0 8.88 0h3.77a4.36 4.36 0 0 1 4.36 4.36v10.71a4.36 4.36 0 0 1 -4.36 4.35zm-8.21-23a2.56 2.56 0 1 1 -2.56 2.56 2.56 2.56 0 0 1 2.56-2.54z"/></g></svg>